<mxfile host="app.diagrams.net" modified="2024-03-26T15:48:19.798Z" agent="Mozilla/5.0 (Windows NT 10.0; Win64; x64) AppleWebKit/537.36 (KHTML, like Gecko) Chrome/122.0.0.0 Safari/537.36" etag="ID7YMfBIDmch7DIvTrK1" version="24.2.0" type="device">
  <diagram name="Page-1" id="0cxLK6B1qZ-80W-4j8hx">
    <mxGraphModel dx="1221" dy="1030" grid="0" gridSize="10" guides="1" tooltips="1" connect="1" arrows="1" fold="1" page="0" pageScale="1" pageWidth="850" pageHeight="1100" math="0" shadow="0">
      <root>
        <mxCell id="0" />
        <mxCell id="1" parent="0" />
        <mxCell id="Iu25lgEWChFgaFbriD92-103" value="&lt;font style=&quot;font-size: 18px;&quot;&gt;Logits&lt;/font&gt;" style="rounded=1;whiteSpace=wrap;html=1;fillColor=#f5f5f5;gradientColor=#b3b3b3;strokeColor=#666666;fontSize=14;fontStyle=1;rotation=-90;" parent="1" vertex="1">
          <mxGeometry x="252.25" y="240.25" width="396" height="35" as="geometry" />
        </mxCell>
        <mxCell id="Iu25lgEWChFgaFbriD92-110" value="" style="strokeWidth=2;html=1;shape=mxgraph.flowchart.annotation_1;align=left;pointerEvents=1;direction=south;fontSize=14;fontStyle=1" parent="1" vertex="1">
          <mxGeometry x="344.87" y="29" width="130.25" height="50" as="geometry" />
        </mxCell>
        <mxCell id="Iu25lgEWChFgaFbriD92-145" value="&lt;font style=&quot;font-size: 48px;&quot;&gt;...&lt;/font&gt;" style="text;html=1;align=center;verticalAlign=middle;resizable=0;points=[];autosize=1;strokeColor=none;fillColor=none;fontSize=14;fontStyle=1" parent="1" vertex="1">
          <mxGeometry x="179" y="66" width="60" height="70" as="geometry" />
        </mxCell>
        <mxCell id="WK32DhDvXuLAIViGbRyr-145" value="" style="strokeWidth=2;html=1;shape=mxgraph.flowchart.annotation_1;align=left;pointerEvents=1;direction=south;fontSize=14;fontStyle=1" parent="1" vertex="1">
          <mxGeometry x="148" y="29" width="122" height="50" as="geometry" />
        </mxCell>
        <mxCell id="aZ4RtvFDJK5GRtdwdaWC-2" value="&lt;font style=&quot;font-size: 18px;&quot;&gt;Input_ids&lt;/font&gt;" style="rounded=1;whiteSpace=wrap;html=1;fillColor=#f5f5f5;gradientColor=#b3b3b3;strokeColor=#666666;fontSize=14;fontStyle=1;rotation=-90;" parent="1" vertex="1">
          <mxGeometry x="115.84" y="413" width="110.87" height="35" as="geometry" />
        </mxCell>
        <mxCell id="aZ4RtvFDJK5GRtdwdaWC-3" value="&lt;font style=&quot;font-size: 48px;&quot;&gt;...&lt;/font&gt;" style="text;html=1;align=center;verticalAlign=middle;resizable=0;points=[];autosize=1;strokeColor=none;fillColor=none;fontSize=14;fontStyle=1" parent="1" vertex="1">
          <mxGeometry x="380.0000000000001" y="63" width="60" height="70" as="geometry" />
        </mxCell>
        <mxCell id="SgD7xv6A9KrI4WXc54sU-36" value="&lt;font style=&quot;font-size: 48px;&quot;&gt;...&lt;/font&gt;" style="text;html=1;align=center;verticalAlign=middle;resizable=0;points=[];autosize=1;strokeColor=none;fillColor=none;fontSize=14;fontStyle=1" parent="1" vertex="1">
          <mxGeometry x="377.0000000000001" y="313" width="60" height="70" as="geometry" />
        </mxCell>
        <mxCell id="07rTELGIsbOFbsh4Nyog-1" value="&lt;font style=&quot;font-size: 18px;&quot;&gt;token_type_ids&lt;/font&gt;" style="rounded=1;whiteSpace=wrap;html=1;fillColor=#f5f5f5;gradientColor=#b3b3b3;strokeColor=#666666;fontSize=14;fontStyle=1;rotation=-90;" parent="1" vertex="1">
          <mxGeometry x="90.61" y="266.53" width="156.55" height="35" as="geometry" />
        </mxCell>
        <mxCell id="07rTELGIsbOFbsh4Nyog-2" value="&lt;span style=&quot;font-size: 18px;&quot;&gt;attention_mask&lt;/span&gt;" style="rounded=1;whiteSpace=wrap;html=1;fillColor=#f5f5f5;gradientColor=#b3b3b3;strokeColor=#666666;fontSize=14;fontStyle=1;rotation=-90;" parent="1" vertex="1">
          <mxGeometry x="93" y="94.99999999999997" width="156.55" height="35" as="geometry" />
        </mxCell>
        <mxCell id="-583Apwpy-uKcxM53sTH-1" style="edgeStyle=orthogonalEdgeStyle;rounded=0;orthogonalLoop=1;jettySize=auto;html=1;exitX=0.5;exitY=1;exitDx=0;exitDy=0;" edge="1" parent="1" source="07rTELGIsbOFbsh4Nyog-4">
          <mxGeometry relative="1" as="geometry">
            <mxPoint x="290.1111145019531" y="109" as="targetPoint" />
          </mxGeometry>
        </mxCell>
        <mxCell id="07rTELGIsbOFbsh4Nyog-4" value="&lt;font style=&quot;font-size: 18px;&quot;&gt;Sub&lt;/font&gt;" style="rounded=1;whiteSpace=wrap;html=1;fillColor=#000000;strokeColor=#2D7600;fontSize=14;fontStyle=1;rotation=-90;fontColor=#ffffff;" parent="1" vertex="1">
          <mxGeometry x="203.2500000000001" y="91" width="90" height="35" as="geometry" />
        </mxCell>
        <mxCell id="07rTELGIsbOFbsh4Nyog-6" value="&lt;font style=&quot;font-size: 48px;&quot;&gt;...&lt;/font&gt;" style="text;html=1;align=center;verticalAlign=middle;resizable=0;points=[];autosize=1;strokeColor=none;fillColor=none;fontSize=14;fontStyle=1" parent="1" vertex="1">
          <mxGeometry x="179" y="231.53" width="60" height="70" as="geometry" />
        </mxCell>
        <mxCell id="07rTELGIsbOFbsh4Nyog-7" value="&lt;font style=&quot;font-size: 48px;&quot;&gt;...&lt;/font&gt;" style="text;html=1;align=center;verticalAlign=middle;resizable=0;points=[];autosize=1;strokeColor=none;fillColor=none;fontSize=14;fontStyle=1" parent="1" vertex="1">
          <mxGeometry x="179" y="388" width="60" height="70" as="geometry" />
        </mxCell>
        <mxCell id="-583Apwpy-uKcxM53sTH-6" style="edgeStyle=orthogonalEdgeStyle;rounded=0;orthogonalLoop=1;jettySize=auto;html=1;exitX=0.5;exitY=1;exitDx=0;exitDy=0;" edge="1" parent="1" source="07rTELGIsbOFbsh4Nyog-8">
          <mxGeometry relative="1" as="geometry">
            <mxPoint x="285.6666564941406" y="357" as="targetPoint" />
          </mxGeometry>
        </mxCell>
        <mxCell id="07rTELGIsbOFbsh4Nyog-8" value="&lt;font style=&quot;font-size: 18px;&quot;&gt;Add&lt;/font&gt;" style="rounded=1;whiteSpace=wrap;html=1;fillColor=#000000;strokeColor=#2D7600;fontSize=14;fontStyle=1;rotation=-90;fontColor=#ffffff;" parent="1" vertex="1">
          <mxGeometry x="144.07" y="339.45" width="208.38" height="35" as="geometry" />
        </mxCell>
        <mxCell id="-583Apwpy-uKcxM53sTH-10" style="edgeStyle=orthogonalEdgeStyle;rounded=0;orthogonalLoop=1;jettySize=auto;html=1;exitX=0.5;exitY=0;exitDx=0;exitDy=0;entryX=0.5;entryY=0;entryDx=0;entryDy=0;" edge="1" parent="1" target="07rTELGIsbOFbsh4Nyog-10">
          <mxGeometry relative="1" as="geometry">
            <mxPoint x="329.2221984863281" y="109" as="sourcePoint" />
          </mxGeometry>
        </mxCell>
        <mxCell id="07rTELGIsbOFbsh4Nyog-10" value="&lt;font style=&quot;font-size: 18px;&quot;&gt;Mul&lt;/font&gt;" style="rounded=1;whiteSpace=wrap;html=1;fillColor=#000000;strokeColor=#2D7600;fontSize=14;fontStyle=1;rotation=-90;fontColor=#ffffff;" parent="1" vertex="1">
          <mxGeometry x="324.5000000000001" y="91" width="90" height="35" as="geometry" />
        </mxCell>
        <mxCell id="-583Apwpy-uKcxM53sTH-11" style="edgeStyle=orthogonalEdgeStyle;rounded=0;orthogonalLoop=1;jettySize=auto;html=1;exitX=0.5;exitY=0;exitDx=0;exitDy=0;entryX=0.5;entryY=0;entryDx=0;entryDy=0;" edge="1" parent="1" target="07rTELGIsbOFbsh4Nyog-11">
          <mxGeometry relative="1" as="geometry">
            <mxPoint x="329.2221984863281" y="359" as="sourcePoint" />
          </mxGeometry>
        </mxCell>
        <mxCell id="07rTELGIsbOFbsh4Nyog-11" value="&lt;font style=&quot;font-size: 18px;&quot;&gt;Layer Normalization&lt;/font&gt;" style="rounded=1;whiteSpace=wrap;html=1;fillColor=#000000;strokeColor=#2D7600;fontSize=14;fontStyle=1;rotation=-90;fontColor=#ffffff;" parent="1" vertex="1">
          <mxGeometry x="270" y="341" width="199" height="35" as="geometry" />
        </mxCell>
        <mxCell id="-583Apwpy-uKcxM53sTH-3" value="&lt;span style=&quot;font-size: 18px;&quot;&gt;Intermediate Layers&lt;/span&gt;" style="text;html=1;align=center;verticalAlign=middle;resizable=0;points=[];autosize=1;strokeColor=none;fillColor=none;fontSize=14;fontStyle=1" vertex="1" parent="1">
          <mxGeometry x="341" y="464.49" width="188" height="34" as="geometry" />
        </mxCell>
        <mxCell id="-583Apwpy-uKcxM53sTH-4" value="" style="endArrow=classic;html=1;rounded=0;entryX=0.596;entryY=0.979;entryDx=0;entryDy=0;entryPerimeter=0;" edge="1" parent="1" target="SgD7xv6A9KrI4WXc54sU-36">
          <mxGeometry width="50" height="50" relative="1" as="geometry">
            <mxPoint x="414" y="471" as="sourcePoint" />
            <mxPoint x="414" y="408" as="targetPoint" />
          </mxGeometry>
        </mxCell>
        <mxCell id="-583Apwpy-uKcxM53sTH-8" value="&lt;font style=&quot;font-size: 18px;&quot;&gt;1st half Partitioned Model&lt;/font&gt;" style="text;html=1;align=center;verticalAlign=middle;resizable=0;points=[];autosize=1;strokeColor=none;fillColor=none;fontSize=14;fontStyle=1" vertex="1" parent="1">
          <mxGeometry x="90.5" y="-5" width="237" height="34" as="geometry" />
        </mxCell>
        <mxCell id="-583Apwpy-uKcxM53sTH-9" value="&lt;font style=&quot;font-size: 18px;&quot;&gt;2nd half Partitioned Model&lt;/font&gt;" style="text;html=1;align=center;verticalAlign=middle;resizable=0;points=[];autosize=1;strokeColor=none;fillColor=none;fontSize=14;fontStyle=1" vertex="1" parent="1">
          <mxGeometry x="328.75" y="-5" width="243" height="34" as="geometry" />
        </mxCell>
      </root>
    </mxGraphModel>
  </diagram>
</mxfile>
